<svg xmlns="http://www.w3.org/2000/svg" viewBox="0 0 511.6 138.9"><defs><style>      .cls-1 {        fill: #7bbe43;      }      .cls-2, .cls-3, .cls-4 {        fill-rule: evenodd;      }      .cls-2, .cls-5 {        fill: #bc945b;      }      .cls-6, .cls-4 {        fill: #6b9e41;      }      .cls-3, .cls-7 {        fill: #43a3da;      }      .cls-8 {        fill: #163a48;      }      .cls-9 {        fill: #d8ad68;      }      .cls-10 {        fill: #5eb7e7;      }    </style></defs><g><g id="Layer_1"><g><g><path class="cls-8" d="M23,133.2c.1,0,.2,0,.2.2v1.8c0,.1,0,.2-.2.2h-11.7c-.3,0-.4-.1-.2-.4l8.2-13.7h-7.5c-.1,0-.2,0-.2-.2v-1.8c0-.1,0-.2.2-.2h11.1c.3,0,.3.2.2.4l-8.2,13.7h8.1Z"></path><path class="cls-8" d="M63.7,133.2h6.9c.1,0,.2,0,.2.2v1.8c0,.1,0,.2-.2.2h-9.2c-.1,0-.2,0-.2-.2v-15.9c0-.1,0-.2.2-.2h8.9c.1,0,.2,0,.2.2v1.8c0,.1,0,.2-.2.2h-6.7v4.6h5.6c.1,0,.2,0,.2.2v1.8c0,.1,0,.2-.2.2h-5.6v4.9Z"></path><path class="cls-8" d="M121.9,119.1c.1,0,.2,0,.2.2v15.9c0,.1,0,.2-.2.2h-2.3c0,0-.2,0-.3-.1l-8-12.3v12.2c0,.1,0,.2-.2.2h-2c-.1,0-.2,0-.2-.2v-15.9c0-.1,0-.2.2-.2h2.3c.2,0,.2,0,.3.2l7.9,12.3v-12.2c0-.1,0-.2.2-.2h2Z"></path><path class="cls-8" d="M163.5,135.3c0,.1,0,.2-.2.2h-2c-.1,0-.2,0-.2-.2v-15.9c0-.1,0-.2.2-.2h2c.1,0,.2,0,.2.2v15.9Z"></path><path class="cls-8" d="M201.2,121.4c-.1,0-.2,0-.2-.2v-1.8c0-.1,0-.2.2-.2h11.7c.1,0,.2,0,.2.2v1.8c0,.1,0,.2-.2.2h-4.6v13.9c0,.1,0,.2-.2.2h-2c-.1,0-.2,0-.2-.2v-13.9h-4.6Z"></path><path class="cls-8" d="M250.8,135.5c-.1,0-.2,0-.2-.2v-15.9c0-.1,0-.2.2-.2h2c.1,0,.2,0,.2.2v6.8h7.5v-6.8c0-.1,0-.2.2-.2h2c.1,0,.2,0,.2.2v15.9c0,.1,0,.2-.2.2h-2c-.1,0-.2,0-.2-.2v-7s-7.5,0-7.5,0v7c0,.1,0,.2-.2.2h-2Z"></path><path class="cls-8" d="M350.6,135.7c-5,0-8.4-3.4-8.4-8.4s4.2-8.4,8.4-8.4,4.3.7,5.9,2.2c.1,0,0,.2,0,.3l-1.2,1.4s0,0-.1,0c0,0-.1,0-.2,0-.9-.8-2.2-1.5-4.3-1.5-3.6,0-6,2.4-6,6s2.4,6,5.9,6,3.4-.8,4.3-1.6c0,0,.1,0,.2,0s.1,0,.1,0l1.2,1.5c0,0,0,.2,0,.3-1.6,1.5-3.7,2.2-5.9,2.2Z"></path><path class="cls-8" d="M396.9,130.8l-1.8,4.5c0,.1-.1.2-.2.2h-2c-.2,0-.3,0-.2-.3l6.3-15.9c0-.1.2-.2.3-.2h2.1c.1,0,.3,0,.3.2l6.3,15.9c0,.2,0,.3-.2.3h-2c-.1,0-.2,0-.3-.2l-1.8-4.5h-6.9ZM397.7,128.7h5.2l-2.6-6.6-2.6,6.6Z"></path><path class="cls-8" d="M447.7,128.9v6.4c0,.1,0,.2-.2.2h-2c-.1,0-.2,0-.2-.2v-15.9c0-.1,0-.2.2-.2h5.4c3.3,0,5.2,1.9,5.3,4.9,0,2.5-1.4,4.3-3.9,4.7l4.1,6.5c0,.2,0,.3-.2.3h-2.3c0,0-.2,0-.2-.1l-3.8-6.5h-2.1ZM447.7,121.4v5.2h3.3c1.6,0,2.8-.8,2.8-2.6s-1.2-2.6-2.8-2.6h-3.3Z"></path><path class="cls-8" d="M496.6,133.2h6.9c.1,0,.2,0,.2.2v1.8c0,.1,0,.2-.2.2h-9.2c-.1,0-.2,0-.2-.2v-15.9c0-.1,0-.2.2-.2h8.9c.1,0,.2,0,.2.2v1.8c0,.1,0,.2-.2.2h-6.7v4.6h5.6c.1,0,.2,0,.2.2v1.8c0,.1,0,.2-.2.2h-5.6v4.9Z"></path></g><g><g><path class="cls-8" d="M60.6,38.5c4.8,0,9.1,1.9,12.2,5.1,3.1,3.1,5.1,7.5,5.1,12.3s-2,9.1-5.1,12.3c-3.1,3.1-7.4,5.1-12.2,5.1s-9.1-1.9-12.3-5.1c-3.1-3.1-5.1-7.5-5.1-12.3s1.9-9.1,5.1-12.3c3.1-3.1,7.5-5.1,12.3-5.1h0ZM68,48.4c-1.9-1.9-4.5-3.1-7.4-3.1s-5.5,1.2-7.4,3.1c-1.9,1.9-3.1,4.5-3.1,7.4s1.2,5.5,3.1,7.4c1.9,1.9,4.5,3.1,7.4,3.1s5.5-1.2,7.4-3.1c1.9-1.9,3.1-4.5,3.1-7.4s-1.2-5.5-3.1-7.4h0Z"></path><path class="cls-10" d="M73.6,12.1c0-1.9,1.6-3.4,3.4-3.4s3.4,1.5,3.4,3.4c0,5.5-2.2,10.5-5.8,14-3.6,3.6-8.6,5.8-14,5.8s-10.5-2.2-14-5.8c-3.6-3.6-5.8-8.6-5.8-14s1.6-3.4,3.4-3.4,3.4,1.5,3.4,3.4c0,3.6,1.4,6.8,3.8,9.2,2.4,2.4,5.6,3.8,9.2,3.8s6.8-1.4,9.2-3.8c2.3-2.3,3.8-5.6,3.8-9.2h0Z"></path><path class="cls-7" d="M73.6,12.1c0-1.9,1.6-3.4,3.4-3.4s3.4,1.5,3.4,3.4-1.5,3.4-3.4,3.4-3.4-1.6-3.4-3.4h0ZM40.7,12.1c0,1.9,1.6,3.4,3.4,3.4s3.4-1.6,3.4-3.4-1.5-3.4-3.4-3.4-3.4,1.5-3.4,3.4h0Z"></path><path class="cls-3" d="M60.6,6.8c2.9,0,5.3,2.3,5.3,5.3s-2.4,5.3-5.3,5.3-5.3-2.4-5.3-5.3,2.4-5.3,5.3-5.3h0Z"></path><path class="cls-1" d="M105,45.2c1.7-.9,3.7-.4,4.7,1.3.9,1.6.4,3.7-1.3,4.7-4.7,2.7-10.1,3.3-15,2-4.9-1.3-9.3-4.5-12.1-9.2-2.7-4.8-3.3-10.2-2-15.1,1.3-4.9,4.5-9.3,9.2-12,1.7-1,3.7-.4,4.7,1.2.9,1.7.4,3.8-1.3,4.7-3.1,1.8-5.2,4.7-6,7.9-.9,3.2-.5,6.7,1.3,9.8,1.8,3.1,4.7,5.2,7.9,6.1,3.2.9,6.8.5,9.9-1.3h0Z"></path><path class="cls-6" d="M105,45.2c1.7-.9,3.7-.4,4.7,1.3.9,1.6.4,3.7-1.3,4.7-1.6.9-3.7.4-4.7-1.3-1-1.6-.4-3.7,1.2-4.7h0ZM88.5,16.8c-1.7.9-2.2,3-1.2,4.7.9,1.6,3,2.2,4.7,1.2,1.7-.9,2.2-3,1.3-4.7-1-1.6-3-2.2-4.7-1.2h0Z"></path><path class="cls-4" d="M103.1,31.3c1.4,2.6.6,5.8-2,7.2-2.5,1.5-5.8.6-7.2-1.9-1.5-2.6-.6-5.8,1.9-7.2,2.5-1.4,5.8-.6,7.2,1.9h0Z"></path><path class="cls-9" d="M92,89c1.7,1,2.2,3,1.3,4.7-1,1.7-3,2.2-4.7,1.2-4.8-2.7-7.9-7.1-9.2-12-1.3-4.9-.8-10.3,2-15.1,2.8-4.7,7.1-7.9,12.1-9.2,4.9-1.3,10.3-.8,15,2,1.7.9,2.2,3,1.3,4.7-1,1.6-3,2.2-4.7,1.2-3.1-1.8-6.7-2.2-9.9-1.3-3.2.9-6.1,3-7.9,6.1-1.8,3.1-2.2,6.6-1.3,9.9.9,3.2,2.9,6.1,6,7.9h0Z"></path><path class="cls-5" d="M92,89c1.7,1,2.2,3,1.3,4.7-1,1.7-3,2.2-4.7,1.2-1.7-.9-2.2-3-1.2-4.7.9-1.7,3-2.2,4.7-1.3h0ZM108.4,60.5c-1.6-1-3.7-.4-4.7,1.2-1,1.7-.4,3.8,1.2,4.7,1.7.9,3.7.4,4.7-1.2.9-1.7.4-3.8-1.3-4.7h0Z"></path><path class="cls-2" d="M103.1,80.4c-1.5,2.5-4.7,3.4-7.2,1.9-2.6-1.4-3.4-4.7-1.9-7.2,1.4-2.5,4.7-3.4,7.2-1.9,2.6,1.4,3.4,4.7,2,7.2h0Z"></path><path class="cls-10" d="M47.6,99.6c0,1.9-1.5,3.4-3.4,3.4s-3.4-1.5-3.4-3.4c0-5.5,2.2-10.5,5.8-14,3.6-3.6,8.6-5.8,14-5.8s10.4,2.2,14,5.8c3.6,3.6,5.8,8.6,5.8,14s-1.5,3.4-3.4,3.4-3.4-1.5-3.4-3.4c0-3.6-1.4-6.8-3.8-9.2-2.3-2.3-5.6-3.8-9.2-3.8s-6.8,1.5-9.2,3.8c-2.3,2.3-3.8,5.6-3.8,9.2h0Z"></path><path class="cls-7" d="M47.6,99.6c0,1.9-1.5,3.4-3.4,3.4s-3.4-1.5-3.4-3.4,1.6-3.4,3.4-3.4,3.4,1.5,3.4,3.4h0ZM80.4,99.6c0-1.9-1.5-3.4-3.4-3.4s-3.4,1.5-3.4,3.4,1.6,3.4,3.4,3.4,3.4-1.5,3.4-3.4h0Z"></path><path class="cls-3" d="M60.6,104.9c-2.9,0-5.3-2.4-5.3-5.3s2.4-5.3,5.3-5.3,5.3,2.4,5.3,5.3-2.4,5.3-5.3,5.3h0Z"></path><path class="cls-1" d="M16.2,66.5c-1.6.9-3.7.4-4.7-1.2-.9-1.7-.4-3.8,1.3-4.7,4.7-2.8,10.1-3.3,15.1-2,4.9,1.3,9.3,4.5,12,9.2,2.7,4.8,3.3,10.2,2,15.1-1.3,4.9-4.5,9.3-9.3,12-1.6,1-3.7.4-4.7-1.2-.9-1.7-.4-3.7,1.3-4.7,3.1-1.8,5.2-4.7,6-7.9.9-3.2.5-6.8-1.3-9.9-1.8-3.1-4.7-5.2-7.9-6.1-3.2-.9-6.8-.5-9.9,1.3h0Z"></path><path class="cls-6" d="M16.2,66.5c-1.6.9-3.7.4-4.7-1.2-.9-1.7-.4-3.8,1.3-4.7,1.6-1,3.7-.4,4.7,1.2.9,1.7.4,3.8-1.3,4.7h0ZM32.6,94.9c1.7-.9,2.2-3,1.3-4.7-1-1.7-3.1-2.2-4.7-1.3-1.7,1-2.2,3-1.3,4.7,1,1.7,3.1,2.2,4.7,1.2h0Z"></path><path class="cls-4" d="M18.1,80.4c-1.5-2.6-.6-5.8,1.9-7.2,2.5-1.4,5.8-.6,7.2,1.9,1.4,2.6.6,5.8-2,7.2-2.5,1.4-5.8.6-7.2-1.9h0Z"></path><path class="cls-9" d="M29.2,22.7c-1.7-.9-2.2-3-1.3-4.7,1-1.6,3.1-2.2,4.7-1.2,4.8,2.7,7.9,7.1,9.3,12,1.3,4.9.7,10.3-2,15.1-2.7,4.8-7.1,7.9-12,9.2-4.9,1.3-10.3.8-15.1-2-1.7-1-2.2-3.1-1.3-4.7,1-1.7,3.1-2.2,4.7-1.3,3.1,1.8,6.7,2.2,9.9,1.3,3.2-.9,6.1-3,7.9-6.1,1.8-3.1,2.1-6.6,1.3-9.8-.9-3.2-2.9-6.1-6-7.9h0Z"></path><path class="cls-5" d="M29.2,22.7c-1.7-.9-2.2-3-1.3-4.7,1-1.6,3.1-2.2,4.7-1.2,1.7.9,2.2,3,1.3,4.7-1,1.6-3.1,2.2-4.7,1.2h0ZM12.8,51.2c1.6.9,3.7.4,4.7-1.3.9-1.6.4-3.7-1.3-4.7-1.6-.9-3.7-.4-4.7,1.3-.9,1.6-.4,3.7,1.3,4.7h0Z"></path><path class="cls-2" d="M18.1,31.3c1.4-2.5,4.7-3.4,7.2-1.9,2.6,1.5,3.4,4.7,2,7.2-1.5,2.5-4.7,3.4-7.2,1.9-2.6-1.4-3.4-4.7-1.9-7.2h0Z"></path></g><g><path class="cls-8" d="M157.1,24.4c-1.3.4-2.2.9-2.5,1.3-.3.4-.5,1.3-.5,2.7v15c0,1.4.2,2.3.5,2.7.3.4,1.2.8,2.5,1.3v.4h-9.6v-.4c1.3-.4,2.2-.9,2.5-1.3.3-.4.5-1.3.5-2.7v-15.9h0c-4.2,7.8-6.9,13.2-8.3,16h-.5c-2.8-5.5-5.5-10.5-8.3-15.1v13c0,1.6,0,2.8.3,3.6.2.7.5,1.3.9,1.6.4.3,1.1.6,2.2.9v.4h-8.1v-.4c1-.3,1.8-.6,2.2-.9s.7-.8.9-1.6c.2-.7.3-1.9.3-3.6v-14.8c-.3-.4-.8-.9-1.4-1.4-.7-.5-1.3-.8-1.8-1v-.2h6.3c2.9,5.2,5.6,10.1,7.9,14.8l7.8-14.8h6.3v.4h0Z"></path><path class="cls-8" d="M179.9,44.8c.3.8.6,1.4,1,1.8s1,.6,2.1.9v.4h-9.5v-.4c1.1-.3,1.8-.6,2.2-.8.4-.2.6-.5.6-.9s-.1-.9-.4-1.7l-1.5-4.1h-7.9l-.3.9c-.8,2.3-1.3,3.8-1.3,4.5,0,.6.2,1,.5,1.3s.9.6,1.8.9v.4h-7v-.4c1.2-.6,2.1-1.4,2.6-2.2.6-.9,1.2-2.3,1.9-4.3l5-13.9-1-1.9c1.4-.6,2.5-1.2,3.2-1.8l8.1,21.5h0ZM173.7,38.1l-3.4-9.2-3.3,9.2h6.7Z"></path><path class="cls-8" d="M192.4,36.9v6.5c0,1.4.2,2.3.5,2.7.4.4,1.3.8,2.7,1.3v.4h-9.8v-.4c1.3-.4,2.2-.9,2.5-1.3.3-.4.5-1.3.5-2.7v-15c0-1.4-.2-2.3-.5-2.7s-1.2-.9-2.5-1.3v-.4h9.2c2.8,0,5,.5,6.7,1.5,1.7,1,2.5,2.6,2.5,4.8,0,4.4-3.6,6.6-10.7,6.6h-1.1ZM192.4,25.4v10.4h.9c5,0,7.4-1.8,7.4-5.4s-2.1-5-6.2-5h-2.1Z"></path><path class="cls-8" d="M225.3,42.1l-.8,5.8h-17.2v-.4c1.3-.4,2.2-.9,2.5-1.3s.5-1.3.5-2.7v-15c0-1.4-.2-2.3-.5-2.7s-1.2-.9-2.5-1.3v-.4h9.5v.4c-1.3.4-2.2.9-2.5,1.3s-.5,1.3-.5,2.7v16.6c0,.4.4.7,1.2,1,.8.3,1.9.4,3.3.4h1c1.2,0,2.3-.4,3.3-1.3,1-.9,1.7-1.9,2.3-3.1h.4Z"></path><path class="cls-8" d="M247.9,42.1l-.8,5.8h-17.6v-.4c1.3-.4,2.2-.9,2.5-1.3s.5-1.3.5-2.7v-15c0-1.4-.2-2.3-.5-2.7s-1.2-.9-2.5-1.3v-.4h16.5l.6,5.5h-.4c-.4-1.1-1.1-2.1-2.1-2.9s-2.3-1.3-3.8-1.3h-4.1v9h4.3c.9,0,1.6-.2,2.2-.6.6-.4,1.1-.9,1.4-1.4h.3v5.6h-.3c-.9-1.6-2.1-2.4-3.6-2.3h-4.3v9.3c0,.4.4.7,1.2,1,.8.3,1.9.4,3.3.4h1.5c1.2,0,2.3-.4,3.2-1.3,1-.9,1.7-1.9,2.3-3.1h.4Z"></path><path class="cls-8" d="M285.3,24.1v.4c-1.3.6-2.1,1.1-2.5,1.6-.4.5-.8,1.4-1.3,2.6l-6.9,19.3h-.8l-6.1-17-6,17h-.8l-7.7-21.3c-.1-.4-.3-.7-.4-.9-.1-.2-.4-.4-.8-.6-.4-.2-1-.5-1.7-.7v-.4h9.5v.4c-1.1.2-1.8.5-2.2.8-.4.3-.6.6-.6.9s0,.5.2.9l5.3,15,4.6-13.2-.8-2.2c-.1-.4-.3-.7-.4-.9-.1-.2-.4-.4-.8-.6-.4-.2-1-.5-1.8-.7v-.4h9.5v.4c-1,.3-1.7.6-2.1.8s-.6.6-.6,1,.2.9.5,1.9l4.8,13.9,4.7-13.4c.4-1,.5-1.7.5-2.1s-.2-.9-.5-1.2c-.4-.3-1-.7-1.9-1v-.4h7.1Z"></path><path class="cls-8" d="M289,44.8c-2.1-2.3-3.2-5.3-3.2-8.9s1.1-6.6,3.2-8.9c2.1-2.3,4.9-3.4,8.2-3.4s6.1,1.1,8.3,3.4c2.2,2.3,3.2,5.2,3.2,8.9s-1.1,6.6-3.2,8.9c-2.1,2.3-4.9,3.4-8.3,3.4s-6.1-1.1-8.2-3.4ZM297.8,46.9c2,0,3.7-.9,5-2.6,1.3-1.7,2-4,2-6.9s-.2-2.8-.5-4.3c-.3-1.4-.8-2.7-1.5-4-.6-1.2-1.5-2.2-2.6-3s-2.3-1.2-3.6-1.2c-2.1,0-3.8.9-5.1,2.7s-1.9,4.1-1.9,6.9.3,3.8.9,5.6c.6,1.8,1.5,3.4,2.8,4.7,1.3,1.3,2.8,2,4.5,2h0Z"></path><path class="cls-8" d="M315.9,44.8c-2.1-2.3-3.2-5.3-3.2-8.9s1.1-6.6,3.2-8.9c2.1-2.3,4.9-3.4,8.2-3.4s6.1,1.1,8.3,3.4c2.2,2.3,3.2,5.2,3.2,8.9s-1.1,6.6-3.2,8.9c-2.1,2.3-4.9,3.4-8.3,3.4s-6.1-1.1-8.2-3.4ZM324.6,46.9c2,0,3.7-.9,5-2.6,1.3-1.7,2-4,2-6.9s-.2-2.8-.5-4.3c-.3-1.4-.8-2.7-1.5-4-.6-1.2-1.5-2.2-2.6-3s-2.3-1.2-3.6-1.2c-2.1,0-3.8.9-5.1,2.7-1.3,1.8-1.9,4.1-1.9,6.9s.3,3.8.9,5.6,1.5,3.4,2.8,4.7c1.3,1.3,2.8,2,4.5,2h0Z"></path><path class="cls-8" d="M357,27.2c2.2,2.1,3.4,4.9,3.4,8.4s-1.1,6.4-3.2,8.8-5,3.5-8.5,3.5h-10.1v-.4c1.3-.4,2.2-.9,2.5-1.3.3-.4.5-1.3.5-2.7v-15c0-1.4-.2-2.3-.5-2.7s-1.2-.9-2.5-1.3v-.4h8.6c4.4,0,7.7,1.1,10,3.2ZM348.5,46.4c2.5,0,4.5-1,5.9-3,1.4-2,2.1-4.5,2.1-7.7s-.8-5.8-2.4-7.6c-1.6-1.8-4-2.7-7.2-2.7h-1.9v19.6c0,.4.3.7.9.9.6.3,1.4.4,2.5.4h0Z"></path><path class="cls-8" d="M147.4,85.1c.7.9,1.6,1.8,2.7,2.5v.4h-5.1c-2.9-4.1-5.4-8-7.7-11.7h-2.1v7.3c0,1.4.2,2.3.5,2.7s1.2.8,2.5,1.3v.4h-9.5v-.4c1.3-.4,2.2-.9,2.5-1.3.3-.4.5-1.3.5-2.7v-15c0-1.4-.2-2.3-.5-2.7-.3-.4-1.2-.9-2.5-1.3v-.4h9.8c2.8,0,4.9.5,6.4,1.6,1.5,1.1,2.3,2.5,2.3,4.2s-.6,2.8-1.7,3.9c-1.1,1.1-2.6,1.8-4.4,2.1,2,3,4.2,6.1,6.4,9.2h0ZM135.2,75.4h3c1.5,0,2.8-.4,3.8-1.3,1-.9,1.5-2.2,1.5-3.9s-.5-3-1.4-3.7c-.9-.7-2.3-1-4-1h-2.8v9.9Z"></path><path class="cls-8" d="M171.5,82.1l-.8,5.8h-17.6v-.4c1.3-.4,2.2-.9,2.5-1.3s.5-1.3.5-2.7v-15c0-1.4-.2-2.3-.5-2.7s-1.2-.9-2.5-1.3v-.4h16.4l.6,5.5h-.4c-.4-1.1-1.1-2.1-2.1-2.9s-2.3-1.3-3.8-1.3h-4.1v9h4.3c.9,0,1.6-.2,2.2-.6.6-.4,1.1-.9,1.4-1.4h.3v5.6h-.3c-.9-1.6-2.1-2.4-3.6-2.3h-4.3v9.3c0,.4.4.7,1.2,1,.8.3,1.9.4,3.3.4h1.5c1.2,0,2.3-.4,3.2-1.3,1-.9,1.7-1.9,2.3-3.1h.4Z"></path><path class="cls-8" d="M199.9,64.5c-1.3.4-2.2.9-2.5,1.3-.3.4-.5,1.3-.5,2.7v15c0,1.4.2,2.3.5,2.7.3.4,1.2.8,2.5,1.3v.4h-9.6v-.4c1.3-.4,2.2-.9,2.5-1.3s.5-1.3.5-2.7v-7.8h-11v7.8c0,1.4.2,2.3.5,2.7s1.2.8,2.5,1.3v.4h-9.5v-.4c1.3-.4,2.2-.9,2.5-1.3.3-.4.5-1.3.5-2.7v-15c0-1.4-.2-2.3-.5-2.7s-1.2-.9-2.5-1.3v-.4h9.5v.4c-1.3.4-2.2.9-2.5,1.3s-.5,1.3-.5,2.7v5.5h11v-5.5c0-1.4-.2-2.3-.5-2.7s-1.2-.9-2.5-1.3v-.4h9.6v.4h0Z"></path><path class="cls-8" d="M222.6,84.9c.3.8.6,1.4,1,1.8.3.3,1,.6,2.1.9v.4h-9.5v-.4c1.1-.3,1.8-.6,2.2-.8.4-.2.6-.5.6-.9s-.1-.9-.4-1.7l-1.5-4.1h-7.9l-.3.9c-.8,2.3-1.3,3.8-1.3,4.5,0,.6.2,1,.5,1.3s.9.6,1.8.9v.4h-7v-.4c1.2-.6,2.1-1.4,2.6-2.2.6-.9,1.2-2.3,1.9-4.3l5-13.9-1-1.9c1.4-.6,2.5-1.2,3.2-1.8l8.1,21.5h0ZM216.4,78.1l-3.4-9.2-3.3,9.2h6.7Z"></path><path class="cls-8" d="M241.1,74.6c1.7.3,3.2,1,4.5,2.1s2,2.6,2,4.5-.8,3.7-2.4,4.9-3.7,1.9-6.3,1.9h-10.3v-.4c1.3-.4,2.2-.9,2.5-1.3.3-.4.5-1.3.5-2.7v-15c0-1.4-.2-2.3-.5-2.7-.3-.4-1.2-.9-2.5-1.3v-.4h10.3c2.4,0,4.3.5,5.6,1.6,1.3,1.1,2,2.3,2,3.8s-.5,2.4-1.5,3.2-2.2,1.4-3.7,1.7h0c0,.1,0,.1,0,.1ZM238.5,86.4c.5,0,.9,0,1.2,0,.3,0,.7-.1,1.3-.3.6-.2,1-.4,1.4-.8s.7-.8.9-1.5c.3-.7.4-1.5.4-2.5,0-2-.5-3.4-1.4-4.4s-2.2-1.4-3.8-1.3l-3.4.2v9.2c0,.4.3.7.8.9.6.3,1.4.4,2.4.4h.2,0ZM235.1,65.4v8.9h2.9c1.4,0,2.5-.4,3.4-1.2.9-.8,1.4-1.9,1.4-3.4s-.4-2.4-1.2-3.1-2-1.1-3.4-1.1h-3Z"></path><path class="cls-8" d="M280.7,84.9c.3.8.6,1.4,1,1.8s1,.6,2.1.9v.4h-9.5v-.4c1.1-.3,1.8-.6,2.2-.8.4-.2.6-.5.6-.9s-.1-.9-.4-1.7l-1.5-4.1h-7.9l-.3.9c-.8,2.3-1.3,3.8-1.3,4.5,0,.6.2,1,.5,1.3s.9.6,1.8.9v.4h-7v-.4c1.2-.6,2.1-1.4,2.6-2.2.6-.9,1.2-2.3,1.9-4.3l5-13.9-1-1.9c1.4-.6,2.5-1.2,3.2-1.8l8.1,21.5h0ZM274.5,78.1l-3.4-9.2-3.3,9.2h6.7Z"></path><path class="cls-8" d="M309.9,64.5c-1,.3-1.8.6-2.2.9-.4.3-.7.8-.9,1.6s-.3,1.9-.3,3.6v17.4h-2.7c-3.9-6.2-8.1-12.7-12.5-19.3v12.9c0,1.6,0,2.8.3,3.6.2.7.5,1.3.9,1.6.4.3,1.1.6,2.2.9v.4h-8.2v-.4c1-.3,1.8-.6,2.2-.9s.7-.8.9-1.6c.2-.7.3-1.9.3-3.6v-14.4c-.2-.6-.7-1.1-1.3-1.6s-1.3-.9-2-1.1v-.2h5.9c5,7.5,9.2,13.9,12.6,19.4v-12.9c0-1.6,0-2.9-.3-3.6s-.5-1.3-.9-1.6c-.4-.3-1.1-.6-2.2-.9v-.4h8.2v.4Z"></path><path class="cls-8" d="M331.4,67.2c2.2,2.1,3.4,4.9,3.4,8.4s-1.1,6.4-3.2,8.8c-2.2,2.3-5,3.5-8.5,3.5h-10.1v-.4c1.3-.4,2.2-.9,2.5-1.3.3-.4.5-1.3.5-2.7v-15c0-1.4-.2-2.3-.5-2.7s-1.2-.9-2.5-1.3v-.4h8.6c4.4,0,7.7,1.1,10,3.2ZM322.9,86.4c2.5,0,4.5-1,5.9-3,1.4-2,2.1-4.5,2.1-7.7s-.8-5.8-2.4-7.6c-1.6-1.8-4-2.7-7.2-2.7h-1.9v19.6c0,.4.3.7.9.9.6.3,1.4.4,2.5.4h0Z"></path><path class="cls-8" d="M370.9,64.5c-1,.3-1.8.6-2.2.9-.4.3-.7.8-.9,1.6s-.3,1.9-.3,3.6v17.4h-2.7c-3.9-6.2-8.1-12.7-12.5-19.3v12.9c0,1.6,0,2.8.3,3.6.2.7.5,1.3.9,1.6.4.3,1.1.6,2.2.9v.4h-8.2v-.4c1-.3,1.8-.6,2.2-.9s.7-.8.9-1.6c.2-.7.3-1.9.3-3.6v-14.4c-.2-.6-.7-1.1-1.3-1.6s-1.3-.9-2-1.1v-.2h5.9c5,7.5,9.2,13.9,12.6,19.4v-12.9c0-1.6,0-2.9-.3-3.6s-.5-1.3-.9-1.6c-.4-.3-1.1-.6-2.2-.9v-.4h8.2v.4Z"></path><path class="cls-8" d="M397.3,64.5c-1,.3-1.8.6-2.2.9-.4.3-.7.8-.9,1.6s-.3,1.9-.3,3.6v9.9c0,2.5-.8,4.4-2.3,5.8-1.5,1.4-3.6,2.1-6.1,2.1s-1.6,0-2.4-.2c-.8-.2-1.5-.5-2.3-.9-.8-.4-1.5-.9-2-1.6-.6-.6-1-1.5-1.4-2.5-.4-1-.5-2.2-.5-3.5v-11.1c0-1.4-.2-2.3-.5-2.7s-1.2-.9-2.5-1.3v-.4h9.5v.4c-1.3.4-2.2.9-2.5,1.3s-.5,1.3-.5,2.7v10.9c0,2.2.5,4,1.6,5.3,1.1,1.3,2.6,1.9,4.4,1.9s3.2-.6,4.3-1.7c1.1-1.1,1.6-2.6,1.6-4.5v-9.9c0-1.6,0-2.9-.3-3.6-.2-.7-.5-1.3-.9-1.6s-1.1-.6-2.2-.9v-.4h8.1v.4Z"></path><path class="cls-8" d="M418.8,85.1c.7.9,1.6,1.8,2.7,2.5v.4h-5.1c-2.9-4.1-5.4-8-7.7-11.7h-2.1v7.3c0,1.4.2,2.3.5,2.7s1.2.8,2.5,1.3v.4h-9.5v-.4c1.3-.4,2.2-.9,2.5-1.3.3-.4.5-1.3.5-2.7v-15c0-1.4-.2-2.3-.5-2.7-.3-.4-1.2-.9-2.5-1.3v-.4h9.8c2.8,0,4.9.5,6.4,1.6,1.5,1.1,2.3,2.5,2.3,4.2s-.6,2.8-1.7,3.9c-1.1,1.1-2.6,1.8-4.4,2.1,2,3,4.2,6.1,6.4,9.2h0ZM406.6,75.4h3c1.5,0,2.8-.4,3.8-1.3,1-.9,1.5-2.2,1.5-3.9s-.5-3-1.4-3.7c-.9-.7-2.3-1-4-1h-2.8v9.9Z"></path><path class="cls-8" d="M433.1,88.4c-2.2,0-4.6-.7-7.3-2.2l-.4-5.6h.4c.7,1.7,1.7,3.1,3,4.4,1.2,1.3,2.7,1.9,4.2,1.9s2.1-.4,2.9-1.1,1.1-1.6,1.1-2.7-.1-1.3-.4-1.9c-.3-.6-.7-1.1-1.2-1.6-.6-.5-1.1-.9-1.5-1.2-.4-.3-1.1-.7-1.9-1.2-1.1-.7-2-1.2-2.5-1.6-.6-.4-1.2-.9-1.9-1.5-.7-.6-1.1-1.3-1.4-2-.3-.7-.4-1.5-.4-2.4,0-1.9.7-3.4,1.9-4.5,1.3-1.1,2.9-1.7,4.8-1.7s3.8.5,5.9,1.4l.6,5.4h-.4c-.7-1.4-1.6-2.7-2.7-3.7-1.1-1.1-2.3-1.6-3.6-1.6s-1.8.3-2.5.9c-.7.6-1,1.5-1,2.6s.3,1.9,1,2.5c.7.7,2,1.6,3.9,2.8.8.5,1.3.8,1.5.9.2.1.6.4,1.3.8.6.4,1.1.8,1.3,1s.5.5.9,1c.4.4.7.8.8,1.2.1.4.3.8.4,1.3s.2,1,.2,1.6c0,2.1-.7,3.7-2.1,4.9-1.4,1.1-3,1.7-4.9,1.7h0Z"></path><path class="cls-8" d="M443.9,87.5c1.3-.4,2.2-.9,2.5-1.3.3-.4.5-1.3.5-2.7v-15c0-1.4-.2-2.3-.5-2.7s-1.2-.9-2.5-1.3v-.4h9.5v.4c-1.3.4-2.2.9-2.5,1.3-.3.4-.5,1.3-.5,2.7v15c0,1.4.2,2.3.5,2.7.3.4,1.2.8,2.5,1.3v.4h-9.5v-.4Z"></path><path class="cls-8" d="M479.8,64.5c-1,.3-1.8.6-2.2.9-.4.3-.7.8-.9,1.6s-.3,1.9-.3,3.6v17.4h-2.7c-3.9-6.2-8.1-12.7-12.5-19.3v12.9c0,1.6,0,2.8.3,3.6.2.7.5,1.3.9,1.6.4.3,1.1.6,2.2.9v.4h-8.2v-.4c1-.3,1.8-.6,2.2-.9s.7-.8.9-1.6c.2-.7.3-1.9.3-3.6v-14.4c-.2-.6-.7-1.1-1.3-1.6s-1.3-.9-2-1.1v-.2h5.9c5,7.5,9.2,13.9,12.6,19.4v-12.9c0-1.6,0-2.9-.3-3.6s-.5-1.3-.9-1.6c-.4-.3-1.1-.6-2.2-.9v-.4h8.2v.4Z"></path><path class="cls-8" d="M492.7,88.3c-3.2,0-5.8-1.1-7.9-3.3-2-2.2-3-5.1-3-8.8s1.1-6.8,3.3-9.1,5-3.4,8.4-3.4,4.8.5,7.4,1.4l.7,5.3h-.4c-.9-1.4-2.1-2.7-3.4-3.8-1.4-1.1-2.8-1.6-4.5-1.6s-3.9,1-5.4,2.9c-1.5,2-2.2,4.6-2.2,8s.8,6.2,2.3,8.1c1.5,1.9,3.4,2.9,5.6,2.9s1.4,0,2.1-.2c.7-.2,1.3-.5,1.9-1,.6-.5.9-1.2.9-2v-3.9c0-1.3-.3-2.2-.8-2.8-.6-.6-1.7-.9-3.5-.9v-.6h9.7v.4c-.8.4-1.3.9-1.5,1.3-.2.4-.3,1.3-.3,2.7v7.2h-.3c-.5-.5-1.1-.8-1.8-.8s-.9.2-1.5.5c-.7.3-1.4.7-2.4,1s-2,.5-3.2.5h0Z"></path></g></g></g></g></g></svg>